<svg xmlns="http://www.w3.org/2000/svg" width="1000" height="476" fill="none"><g clip-path="url(#a)"><path fill="#fff" d="M570.448 146c3.062 0 4.594 1.219 4.594 3.637v.759c0 1.529-1.431 3.857-4.314 6.994-2.882 3.138-4.304 6.275-4.304 9.463v105.911c0 5.995-2.935 8.993-8.807 8.993h-10.919c-3.577 0-6.913-2.102-10.009-6.305l-68.367-90.624v75.936c0 3.184 1.501 6.372 4.503 9.562 3.003 3.191 4.501 5.549 4.494 7.074v.77c0 2.418-1.594 3.627-4.784 3.627h-24.46c-3.07 0-4.604-1.209-4.604-3.627v-.77c0-1.532 1.277-3.89 3.833-7.074 2.555-3.184 3.833-6.371 3.833-9.562v-93.782c0-3.184-1.278-6.371-3.833-9.562-2.552-3.177-3.833-5.545-3.833-7.074v-.759c0-2.418 1.531-3.637 4.604-3.637h28.534c3.956 0 7.403 2.042 10.338 6.125l62.243 86.418v-71.69c0-3.184-1.405-6.338-4.214-9.463-2.809-3.124-4.213-5.455-4.213-6.994v-.759c0-2.418 1.531-3.637 4.594-3.637l25.091.05ZM699.215 260.904a27.462 27.462 0 0 0 6.616 9.472c2.996 2.871 4.493 5.203 4.493 6.995v.769c0 2.418-1.531 3.627-4.593 3.627h-49.552c-2.943 0-4.404-1.209-4.404-3.627v-.769c0-1.399.924-2.898 2.772-4.497a28.542 28.542 0 0 0 4.794-5.255 6.984 6.984 0 0 0 .671-6.695l-4.234-11.91h-48.641l-4.223 11.89a6.979 6.979 0 0 0 .68 6.695 28.187 28.187 0 0 0 4.784 5.255c1.855 1.599 2.779 3.098 2.773 4.497v.769c0 2.418-1.532 3.627-4.594 3.627h-28.344c-3.063 0-4.594-1.209-4.594-3.627v-.769c0-1.659 1.501-3.947 4.504-6.885a28.467 28.467 0 0 0 6.605-9.562l35.811-92.533a7.587 7.587 0 0 0-.481-6.694 43.241 43.241 0 0 0-4.213-6.495c-1.588-2.038-2.386-3.633-2.392-4.786v-.759c0-2.418 1.461-3.637 4.403-3.637h24.511c6.259 0 10.666 3.061 13.221 9.182l43.627 105.722Zm-86.943-26.188h38.302l-19.116-53.385-19.186 53.385ZM718.973 278.08v-.769c0-1.533 1.277-3.864 3.833-6.995 2.555-3.13 3.833-6.268 3.833-9.412v-94.101c0-3.184-1.278-6.338-3.833-9.463-2.556-3.124-3.833-5.455-3.833-6.994v-.759c0-2.418 1.541-3.637 4.604-3.637h41.555c3.062 0 4.594 1.219 4.594 3.637v.759c0 1.526-1.405 3.857-4.214 6.994-2.809 3.138-4.224 6.292-4.244 9.463v94.101c0 3.191 1.405 6.348 4.214 9.472 2.809 3.124 4.213 5.456 4.213 6.994v.77c0 2.418-1.531 3.627-4.593 3.627h-41.525c-3.063-.06-4.604-1.269-4.604-3.687ZM835.412 166.803c0-3.184-1.274-6.338-3.823-9.463-2.562-3.127-3.833-5.455-3.833-6.994v-.759c0-2.418 1.531-3.637 4.594-3.637h42.135c2.933 0 4.404 1.219 4.404 3.637v.759c0 1.526-1.405 3.857-4.214 6.994-2.809 3.138-4.213 6.292-4.213 9.463v54.134c0 22.049-4.087 37.949-12.261 47.701-8.173 9.752-20.11 14.747-35.81 14.987-8.807.12-16.437-.966-22.889-3.257-6.452-2.291-11.27-5.289-14.452-8.993a39.057 39.057 0 0 1-7.006-11.18 31.223 31.223 0 0 1-2.202-11.381c0-5.096 1.404-9.175 4.213-12.24 2.809-3.064 6.576-4.592 11.3-4.586 4.724 0 8.49 1.306 11.299 3.917a20.672 20.672 0 0 1 5.845 9.562 337.916 337.916 0 0 1 3.003 11.181 26.432 26.432 0 0 0 4.213 9.472 9.435 9.435 0 0 0 8.007 3.917c7.787 0 11.68-9.306 11.68-27.917l.01-75.317ZM989.362 260.904a27.302 27.302 0 0 0 6.605 9.472c3.003 2.871 4.503 5.203 4.503 6.995v.769c0 2.418-1.53 3.627-4.593 3.627h-49.602c-2.942 0-4.403-1.209-4.403-3.627v-.769c0-1.399.924-2.898 2.772-4.497a28.187 28.187 0 0 0 4.784-5.255 6.993 6.993 0 0 0 .67-6.695l-4.213-11.85h-48.641l-4.214 11.83a6.985 6.985 0 0 0 .671 6.695 28.24 28.24 0 0 0 4.794 5.255c1.841 1.599 2.772 3.098 2.772 4.497v.769c0 2.418-1.531 3.627-4.594 3.627H868.36c-3.063 0-4.594-1.209-4.594-3.627v-.769c0-1.659 1.491-3.947 4.493-6.885a28.183 28.183 0 0 0 6.606-9.562l35.82-92.533a7.587 7.587 0 0 0-.48-6.694 44.853 44.853 0 0 0-4.214-6.495c-1.601-1.998-2.392-3.637-2.392-4.786v-.759c0-2.418 1.461-3.637 4.404-3.637h24.511c6.258 0 10.662 3.061 13.211 9.182l43.637 105.722Zm-86.974-26.228h38.333l-19.157-53.345-19.176 53.345ZM533.337 369.284c10.982 1.525 19.656 5.412 26.022 11.66a31.114 31.114 0 0 1 9.578 23.141c0 11.73-5.362 21.032-16.084 27.907-10.722 6.874-26.736 10.318-48.04 10.331h-52.485c-3.062 0-4.594-1.212-4.594-3.637v-.759c0-1.532 1.275-3.864 3.824-6.994 2.548-3.131 3.826-6.285 3.833-9.463v-94.051c0-3.191-1.278-6.348-3.833-9.472-2.556-3.124-3.83-5.456-3.824-6.995v-.769c0-2.418 1.532-3.627 4.594-3.627h53.045c16.474 0 28.954 3.188 37.442 9.562 8.487 6.375 12.734 14.658 12.74 24.849 0 7.148-2.001 13.203-6.005 18.165a29.945 29.945 0 0 1-16.213 10.152Zm-43.477-39.387v24.09a9.488 9.488 0 0 0 2.872 7.274 10.55 10.55 0 0 0 7.467 2.677h9.578a15.02 15.02 0 0 0 11.69-4.876c2.935-3.257 4.403-7.623 4.403-13.099 0-8.16-1.948-14.534-5.845-19.124-3.896-4.589-9.164-6.884-15.803-6.884h-5.354c-6.006 0-9.008 3.314-9.008 9.942Zm23.56 99.037c6.005 0 10.695-1.815 14.072-5.445 3.376-3.631 5.067-8.443 5.074-14.438 0-7.9-3.096-15.164-9.288-21.792-6.192-6.628-14.649-9.942-25.371-9.942H489.9v35.371a17.33 17.33 0 0 0 3.923 11.66 13.074 13.074 0 0 0 10.439 4.586h9.158ZM579.875 438.686v-.759c0-1.529 1.271-3.857 3.833-6.994 2.562-3.138 3.823-6.275 3.823-9.463v-94.051c0-3.191-1.274-6.348-3.823-9.472-2.562-3.118-3.833-5.446-3.833-6.995v-.769c0-2.418 1.531-3.627 4.594-3.627h41.555c3.063 0 4.604 1.209 4.604 3.627v.769c0 1.529-1.411 3.857-4.214 6.995-2.802 3.137-4.213 6.284-4.213 9.472v94.061c0 3.191 1.404 6.345 4.213 9.462 2.803 3.128 4.214 5.456 4.214 6.995v.759c0 2.428-1.541 3.637-4.604 3.637h-41.555c-3.063-.007-4.594-1.222-4.594-3.647ZM773.68 442.323c-3.063 0-4.594-1.212-4.594-3.637v-.759c0-1.532 1.274-3.864 3.823-6.995a15.057 15.057 0 0 0 3.833-9.651v-93.672a15.099 15.099 0 0 0-3.833-9.662c-2.549-3.118-3.823-5.449-3.823-6.995v-.769c0-2.418 1.461-3.627 4.404-3.627h87.714a6.423 6.423 0 0 1 4.493 1.339 8.043 8.043 0 0 1 2.002 4.586l4.604 24.09a4.736 4.736 0 0 1-1.001 3.997 4.832 4.832 0 0 1-3.833 1.529h-.951c-2.432 0-4.884-1.18-7.376-3.538a45.935 45.935 0 0 1-6.516-7.643 36.15 36.15 0 0 0-7.086-7.654 13.904 13.904 0 0 0-8.907-3.537h-16.794c-5.752 0-8.627 3.124-8.627 9.372v37.469h20.116a8.937 8.937 0 0 0 6.126-2.388 16.35 16.35 0 0 0 4.003-5.256 28.256 28.256 0 0 1 3.153-5.255c1.221-1.599 2.402-2.388 3.553-2.388h1.531c2.552 0 3.823 1.459 3.823 4.396v34.412c0 2.937-1.271 4.396-3.823 4.396h-1.531c-1.151 0-2.332-.77-3.553-2.298a28.22 28.22 0 0 1-3.153-4.996 16.094 16.094 0 0 0-4.003-4.996 9.168 9.168 0 0 0-6.126-2.288h-20.116v35.271a17.575 17.575 0 0 0 2.682 9.841c1.788 2.738 4.724 4.107 8.807 4.107h20.117a12.166 12.166 0 0 0 4.63-1.017 12.128 12.128 0 0 0 3.887-2.71 34.548 34.548 0 0 0 6.416-8.123 41.513 41.513 0 0 1 6.005-8.123c2.362-2.492 4.821-3.734 7.376-3.727h1.722a3.625 3.625 0 0 1 3.252 1.818 5.31 5.31 0 0 1 .771 3.917l-4.214 25.049a8.55 8.55 0 0 1-2.001 4.676c-.961.959-2.526 1.439-4.694 1.439H773.68ZM943.552 445.95c-16.734 0-30.589-3.567-41.565-10.701-10.976-7.134-16.464-15.164-16.464-24.09 0-9.052 4.594-13.579 13.782-13.579a14.265 14.265 0 0 1 9.768 3.727 32.866 32.866 0 0 1 7.086 8.993 232.969 232.969 0 0 0 6.135 10.511 27.821 27.821 0 0 0 9.008 8.893 24.963 24.963 0 0 0 13.602 3.627c5.611 0 10.048-1.403 13.311-4.207s4.887-6.691 4.874-11.66a19.225 19.225 0 0 0-4.114-12.52 26.94 26.94 0 0 0-10.719-7.843 120.465 120.465 0 0 0-14.652-4.996 201.862 201.862 0 0 1-16.094-5.166 73.062 73.062 0 0 1-14.652-7.264 31.98 31.98 0 0 1-10.819-12.429c-2.802-5.416-4.207-11.884-4.214-19.404 0-12.237 4.724-22.178 14.172-29.825 9.448-7.647 22.026-11.471 37.732-11.471 15.447 0 28.501 3.474 39.163 10.421 10.663 6.948 15.927 14.905 15.794 23.871 0 4.336-1.245 7.746-3.734 10.231-2.488 2.485-6.095 3.727-10.819 3.727a16.031 16.031 0 0 1-10.689-3.767 27.86 27.86 0 0 1-7.006-8.893 903.787 903.787 0 0 1-5.174-10.421 26.98 26.98 0 0 0-7.086-8.992 16.687 16.687 0 0 0-11.009-3.727c-5.745 0-10.152 1.558-13.221 4.676a16.615 16.615 0 0 0-4.614 12.17 22.875 22.875 0 0 0 4.073 13.848 27.207 27.207 0 0 0 10.729 8.693 106.37 106.37 0 0 0 14.693 5.435 311.778 311.778 0 0 1 16.013 5.256 76.79 76.79 0 0 1 14.552 6.994 30.542 30.542 0 0 1 10.699 11.73c2.756 5.11 4.13 11.291 4.124 18.545 0 12.11-5.074 21.735-15.223 28.876-10.149 7.141-22.629 10.718-37.442 10.731ZM758.556 342.606a5 5 0 0 1-3.843 1.449h-3.243c-1.911 0-3.843-1.219-5.755-3.647a43.58 43.58 0 0 1-5.004-7.923 30.057 30.057 0 0 0-5.755-7.944 11.205 11.205 0 0 0-8.006-3.637 10.11 10.11 0 0 0-4.714 1.149 9.54 9.54 0 0 0-2.372 1.769 9.984 9.984 0 0 0-2.923 6.994v90.634c0 3.168 1.381 6.335 4.124 9.462 2.742 3.128 4.113 5.446 4.113 6.995v.749c0 2.418-1.511 3.637-4.594 3.637h-41.935c-2.943 0-4.394-1.219-4.394-3.637v-.749c0-1.539 1.351-3.857 4.114-6.995a15.41 15.41 0 0 0 4.003-7.993 9.9 9.9 0 0 0 .1-1.429v-90.344a9.798 9.798 0 0 1 2.712-4.996 40.688 40.688 0 0 1 4.644-3.607.61.61 0 0 0 .25-.18.766.766 0 0 0 .261-.58.832.832 0 0 0-.831-.849h-17.145a10.893 10.893 0 0 0-7.936 3.637 28.859 28.859 0 0 0-5.565 7.944 40.136 40.136 0 0 1-4.884 7.923c-1.902 2.431-3.817 3.647-5.745 3.647h-3.243c-3.593 0-5.174-1.859-4.784-5.556l2.573-17.595 1.241-8.403c.39-3.947 2.552-5.925 6.515-5.925h98.443c3.823 0 6.005 1.998 6.516 5.925l4.003 26.208a4.416 4.416 0 0 1-.941 3.867Z"/><path fill="#F73" d="M262.498 194.572 229.412 63.854l-55.216-52.858-35.385 37.854-9.206 52.909 30.078 118.833"/><path fill="#016F45" d="M238.537 181.897 295.373 0h22.18l-25.349 89.584 64.032-32.557V74.45l-40.272 31.688 52.277-16.554 6.657 19.722-84.283 38.015 3.168 49.11-55.246-14.534ZM150.876 210.696H85.824l-31.907-20.002-8.286-53.969 54.276-30.967h14.914l-14.494-33.147 28.998-2.49.42 33.567 61.733 21.542 19.052 37.705-24.44 39.774-35.214 7.987Z"/><path fill="#BFD634" d="M71.03 336.865h28.707a75213.536 75213.536 0 0 1-23.88 26.989c-1.55-8.696-3.058-17.163-4.828-26.989ZM128.296 354.408c-12.135 13.355-24.2 26.78-36.514 39.984l-.06.07c-3.339 3.499-9.296 1.949-10.996-2.579-.11-.29-.22-.59-.32-.879-.63-1.86-.45-3.999-.77-7.697.66-1.2 1.61-3.999 3.42-6.068 10.215-11.585 20.46-23.111 31.036-34.386 2.919-3.099 5.817-7.757 11.725-4.228 9.036 5.397 9.586 7.956 2.479 15.783ZM156.402 365.854c.88 1.089-1 5.457-2.669 7.407-9.346 10.765-18.082 22.381-28.927 31.437-5.548 4.608-14.194 5.498-21.821 7.627a2.68 2.68 0 0 1-3.079-1.239 2.673 2.673 0 0 1 .17-2.909 59.853 59.853 0 0 1 3.928-5.098c11.745-12.925 23.45-25.88 35.395-38.595 1.999-2.149 5.528-4.708 7.947-4.348 3.288.48 6.857 3.059 9.056 5.718ZM169.556 380.707c.7-.649 15.423 9.517 20.311 13.065-14.114 3.179-28.188 6.298-42.262 9.476 7.447-7.407 14.324-15.403 21.951-22.541ZM126.417 439.604c-7.697 1.553-15.4 3.072-23.11 4.558a45.81 45.81 0 0 1-9.916.81l-77.567-2.149c27.528-4.998 57.146-10.186 86.643-15.994 31.236-6.137 62.313-12.905 93.48-19.352 8.686-1.789 15.683 3.119 18.422 13.125a41.117 41.117 0 0 1-3.939 1.249c-27.997 5.978-55.945 12.075-84.013 17.753ZM238.767 439.474c2.189 5.228-1.699 9.257-7.357 10.676-3.688.93-7.356 1.999-11.095 2.739-28.697 5.528-57.385 10.926-86.143 16.453A4100.08 4100.08 0 0 0 105.884 475l-4.228-16.923c31.28-6.338 62.55-12.652 93.81-18.943 10.845-2.179 21.661-4.798 32.616-5.847 3.488-.31 9.366 3.059 10.685 6.187ZM269.045 341.323a85.977 85.977 0 0 1-2.799 11.576 3.002 3.002 0 0 1-3.699 1.999 8.894 8.894 0 0 1-3.778-1.719c-3.898-3.999-7.507-8.267-11.185-12.475a1.369 1.369 0 0 1 .86-2.27c5.767-.739 11.525-1.569 17.302-1.849 1.14-.03 3.509 3.279 3.299 4.738ZM363.844 339.134l-5.908 26.05v.07c-5.247 13.175-11.585 25.82-20.211 37.345a72.73 72.73 0 0 1-5.997 6.427c-.63-.319-1.29-.629-1.939-.949 0-2.109-.52-4.368.089-6.268 6.308-19.992 12.995-39.794 19.142-59.806 2.449-7.937 8.377-6.767 13.265-5.088a3.624 3.624 0 0 1 1.559 2.219Z"/><path fill="#BFD634" d="m395 202.139-116.32-15.894 5.937-63.764a32188.697 32188.697 0 0 1-19.311-24.48L127.945 78.169c-10.146 7.996-15.593 12.225-25.759 20.162l-7.627 76.799H0l7.787 161.995 12.104 11.156-8.686 7.996c.65 3.709 1.33 7.447 2 11.186 3.058 17.243 6.067 34.486 8.825 51.779 1.18 7.337 5.368 7.677 11.456 6.638 6.607-1.11 6.927-4.939 5.997-10.166-5.598-30.988-10.995-62.086-16.733-93.093-.81-4.298-1.47-7.537 4.148-8.287 4.638-.61 8.377-.999 9.456 5.548 4.998 30.508 10.486 60.976 15.644 91.463 1.489 8.787 3.998 10.436 12.404 7.997 4.638-1.319 5.768-3.668 4.928-8.356-3.508-19.783-6.717-39.655-9.995-59.477-1.62-9.746-3.36-19.502-4.359-29.368-.25-2.349 1.79-5.998 3.869-7.267 3.398-1.999 7.107-1.699 9.166 3.219a7.801 7.801 0 0 0 5.637 3.998c10.476.27 20.991.09 31.437-.31 2.449-.1 5.707-.999 7.087-2.649 5.517-6.907 9.346-3.488 14.304.88a19390.256 19390.256 0 0 0 108.423 95.062 81.537 81.537 0 0 0 6.997 4.998c9.536-7.717 9.626-13.785 1.179-21.092a26758.944 26758.944 0 0 1-82.584-72.111 48.821 48.821 0 0 1-3.698-4.238l9.845-8.507c15.324 12.995 30.337 25.44 45.071 38.255 11.445 9.996 22.36 20.502 33.855 30.398 2.539 2.169 6.518 2.639 9.846 3.938 1.789-5.278 6.537-10.646 1.06-16.073-6.997-6.998-14.484-13.515-21.841-20.122-9.756-8.737-19.592-17.363-29.987-26.57 2.489-3.148 4.778-6.047 7.767-9.806 15.993 16.364 34.825 8.827 54.226 8.827 2.999 0 8.147-1 9.296-3.209 2.559-4.828 5.618-5.638 9.446-4.918 1.699 2.769 2.559 4.148 4.228 6.907-13.724 45.102-27.508 90.084-41.022 134.316l17.522 2.33c.79-2.559 1.56-5.118 2.349-7.667a57523.446 57523.446 0 0 0 27.639-90.224c3.938-12.785 7.896-25.6 12.064-38.315 2.999-9.236 3.659-10.826 10.426-7.387l3.538 8.337a83066.61 83066.61 0 0 0-32.206 103.158 4748.696 4748.696 0 0 0-10.415 33.887l55.176 7.337 12.794-56.318a255.413 255.413 0 0 1-26.258 31.668c-2.349 2.439-4.748 5.268-5.928 8.376-4.118 10.886-4.728 11.226-15.993 4.299 14.814-47.601 29.567-94.862 45.101-144.672 4.998 3.828 8.236 7.267 12.195 8.996a37.957 37.957 0 0 0 10.935 3.189l6.377-28.179-20.861-12.105 24.799-5.138 17.163-75.5Zm-136.841-20.992-143.069-4.368v-6.847l7.677-61.495 15.274-8.737 116.399 13.835 8.717 13.074-4.998 54.538Z"/></g><defs><clipPath id="a"><path fill="#fff" d="M0 0h1000v475.19H0z"/></clipPath></defs></svg>