<svg width="25" height="24" viewBox="0 0 25 24" fill="none" xmlns="http://www.w3.org/2000/svg">
<path d="M2.5 13C2.5 7.47715 6.97715 3 12.5 3C18.0228 3 22.5 7.47715 22.5 13V18C22.5 18.5523 22.0523 19 21.5 19C21.4628 19 21.4261 18.998 21.3899 18.994C21.1577 19.5831 20.5834 20 19.9118 20C19.7764 20 19.645 19.9831 19.5196 19.9512C18.2747 20.8038 16.4526 21.5 14 21.5C13.4477 21.5 13 21.0523 13 20.5C13 19.9477 13.4477 19.5 14 19.5C16.0175 19.5 17.4193 18.947 18.3235 18.3452V16.2389C18.3235 14.9429 19.5636 14.4038 20.5 14.7379V13C20.5 8.58172 16.9183 5 12.5 5C8.08172 5 4.5 8.58172 4.5 13V14.7484C5.43695 14.4146 6.67647 14.9559 6.67647 16.2507V18.4118C6.67647 19.2889 5.96539 20 5.08824 20C4.41661 20 3.84236 19.5831 3.61012 18.994C3.57396 18.998 3.53722 19 3.5 19C2.94772 19 2.5 18.5523 2.5 18V13Z" fill="black"/>
</svg>
