<svg width="1000" height="476" viewBox="0 0 1000 476" fill="none" xmlns="http://www.w3.org/2000/svg">
<g clip-path="url(#clip0_116_44531)">
<path d="M570.448 146C573.51 146 575.042 147.219 575.042 149.637V150.396C575.042 151.925 573.611 154.253 570.728 157.39C567.846 160.528 566.424 163.665 566.424 166.853V272.764C566.424 278.759 563.489 281.757 557.617 281.757H546.698C543.121 281.757 539.785 279.655 536.689 275.452L468.322 184.828V260.764C468.322 263.948 469.823 267.136 472.825 270.326C475.828 273.517 477.326 275.875 477.319 277.4V278.17C477.319 280.588 475.725 281.797 472.535 281.797H448.075C445.005 281.797 443.471 280.588 443.471 278.17V277.4C443.471 275.868 444.748 273.51 447.304 270.326C449.859 267.142 451.137 263.955 451.137 260.764V166.982C451.137 163.798 449.859 160.611 447.304 157.42C444.752 154.243 443.471 151.875 443.471 150.346V149.587C443.471 147.169 445.002 145.95 448.075 145.95H476.609C480.565 145.95 484.012 147.992 486.947 152.075L549.19 238.493V166.803C549.19 163.619 547.785 160.465 544.976 157.34C542.167 154.216 540.763 151.885 540.763 150.346V149.587C540.763 147.169 542.294 145.95 545.357 145.95L570.448 146Z" fill="#016F45"/>
<path d="M699.215 260.904C700.723 264.494 702.978 267.722 705.831 270.376C708.827 273.247 710.324 275.579 710.324 277.371V278.14C710.324 280.558 708.793 281.767 705.731 281.767H656.179C653.236 281.767 651.775 280.558 651.775 278.14V277.371C651.775 275.972 652.699 274.473 654.547 272.874C656.358 271.329 657.969 269.563 659.341 267.619C660.008 266.649 660.419 265.527 660.536 264.357C660.653 263.187 660.473 262.006 660.012 260.924L655.778 249.014H607.137L602.914 260.904C602.454 261.987 602.276 263.168 602.395 264.339C602.514 265.509 602.926 266.63 603.594 267.599C604.96 269.545 606.568 271.311 608.378 272.854C610.233 274.453 611.157 275.952 611.151 277.351V278.12C611.151 280.538 609.619 281.747 606.557 281.747H578.213C575.15 281.747 573.619 280.538 573.619 278.12V277.351C573.619 275.692 575.12 273.404 578.123 270.466C580.959 267.766 583.208 264.511 584.728 260.904L620.539 168.371C620.978 167.293 621.163 166.129 621.08 164.968C620.996 163.808 620.647 162.681 620.058 161.677C618.851 159.391 617.441 157.217 615.845 155.182C614.257 153.144 613.459 151.549 613.453 150.396V149.637C613.453 147.219 614.914 146 617.856 146H642.367C648.626 146 653.033 149.061 655.588 155.182L699.215 260.904ZM612.272 234.716H650.574L631.458 181.331L612.272 234.716Z" fill="#016F45"/>
<path d="M718.973 278.08V277.311C718.973 275.778 720.25 273.447 722.806 270.316C725.361 267.186 726.639 264.048 726.639 260.904V166.803C726.639 163.619 725.361 160.465 722.806 157.34C720.25 154.216 718.973 151.885 718.973 150.346V149.587C718.973 147.169 720.514 145.95 723.577 145.95H765.132C768.194 145.95 769.726 147.169 769.726 149.587V150.346C769.726 151.872 768.321 154.203 765.512 157.34C762.703 160.478 761.288 163.632 761.268 166.803V260.904C761.268 264.095 762.673 267.252 765.482 270.376C768.291 273.5 769.695 275.832 769.695 277.37V278.14C769.695 280.558 768.164 281.767 765.102 281.767H723.577C720.514 281.707 718.973 280.498 718.973 278.08Z" fill="#016F45"/>
<path d="M835.412 166.803C835.412 163.619 834.138 160.465 831.589 157.34C829.027 154.213 827.756 151.885 827.756 150.346V149.587C827.756 147.169 829.287 145.95 832.35 145.95H874.485C877.418 145.95 878.889 147.169 878.889 149.587V150.346C878.889 151.872 877.484 154.203 874.675 157.34C871.866 160.478 870.462 163.632 870.462 166.803V220.937C870.462 242.986 866.375 258.886 858.201 268.638C850.028 278.39 838.091 283.385 822.391 283.625C813.584 283.745 805.954 282.659 799.502 280.368C793.05 278.077 788.232 275.079 785.05 271.375C782.097 268.072 779.728 264.291 778.044 260.195C776.606 256.571 775.859 252.712 775.842 248.814C775.842 243.718 777.246 239.639 780.055 236.574C782.864 233.51 786.631 231.982 791.355 231.988C796.079 231.988 799.845 233.294 802.654 235.905C805.447 238.495 807.469 241.804 808.499 245.467C809.58 249.237 810.581 252.964 811.502 256.648C812.267 260.052 813.699 263.271 815.715 266.12C816.623 267.382 817.829 268.399 819.226 269.083C820.623 269.766 822.168 270.094 823.722 270.037C831.509 270.037 835.402 260.731 835.402 242.12L835.412 166.803Z" fill="#016F45"/>
<path d="M989.362 260.904C990.862 264.495 993.115 267.725 995.967 270.376C998.97 273.247 1000.47 275.579 1000.47 277.371V278.14C1000.47 280.558 998.94 281.767 995.877 281.767H946.275C943.333 281.767 941.872 280.558 941.872 278.14V277.371C941.872 275.972 942.796 274.473 944.644 272.874C946.454 271.331 948.062 269.565 949.428 267.619C950.094 266.649 950.505 265.527 950.622 264.357C950.74 263.187 950.559 262.006 950.098 260.924L945.885 249.074H897.244L893.03 260.904C892.569 261.986 892.389 263.167 892.506 264.337C892.624 265.507 893.034 266.629 893.701 267.599C895.071 269.545 896.681 271.311 898.495 272.854C900.336 274.453 901.267 275.952 901.267 277.351V278.12C901.267 280.538 899.736 281.747 896.673 281.747H868.36C865.297 281.747 863.766 280.538 863.766 278.12V277.351C863.766 275.692 865.257 273.404 868.259 270.466C871.102 267.771 873.352 264.515 874.865 260.904L910.685 168.371C911.124 167.293 911.309 166.129 911.226 164.968C911.143 163.808 910.793 162.681 910.205 161.677C908.99 159.395 907.581 157.222 905.991 155.182C904.39 153.184 903.599 151.545 903.599 150.396V149.637C903.599 147.219 905.06 146 908.003 146H932.514C938.772 146 943.176 149.061 945.725 155.182L989.362 260.904ZM902.388 234.676H940.721L921.564 181.331L902.388 234.676Z" fill="#016F45"/>
<path d="M533.337 369.284C544.319 370.809 552.993 374.696 559.359 380.944C562.473 383.929 564.933 387.527 566.581 391.511C568.23 395.494 569.032 399.776 568.937 404.085C568.937 415.815 563.575 425.117 552.853 431.992C542.131 438.866 526.117 442.31 504.813 442.323H452.328C449.266 442.323 447.734 441.111 447.734 438.686V437.927C447.734 436.395 449.009 434.063 451.558 430.933C454.106 427.802 455.384 424.648 455.391 421.47V327.419C455.391 324.228 454.113 321.071 451.558 317.947C449.002 314.823 447.728 312.491 447.734 310.952V310.183C447.734 307.765 449.266 306.556 452.328 306.556H505.373C521.847 306.556 534.327 309.744 542.815 316.118C551.302 322.493 555.549 330.776 555.555 340.967C555.555 348.115 553.554 354.17 549.55 359.132C545.404 364.196 539.708 367.762 533.337 369.284ZM489.86 329.897V353.987C489.794 355.333 490.016 356.678 490.511 357.933C491.006 359.187 491.764 360.321 492.732 361.261C494.777 363.09 497.456 364.051 500.199 363.938H509.777C511.963 364.025 514.143 363.634 516.162 362.792C518.181 361.949 519.992 360.677 521.467 359.062C524.402 355.805 525.87 351.439 525.87 345.963C525.87 337.803 523.922 331.429 520.025 326.839C516.129 322.25 510.861 319.955 504.222 319.955H498.868C492.862 319.955 489.86 323.269 489.86 329.897ZM513.42 428.934C519.425 428.934 524.115 427.119 527.492 423.489C530.868 419.858 532.559 415.046 532.566 409.051C532.566 401.151 529.47 393.887 523.278 387.259C517.086 380.631 508.629 377.317 497.907 377.317H489.9V412.688C489.737 416.922 491.133 421.07 493.823 424.348C495.103 425.851 496.707 427.044 498.515 427.839C500.323 428.633 502.288 429.008 504.262 428.934H513.42Z" fill="#016F45"/>
<path d="M579.875 438.686V437.927C579.875 436.398 581.146 434.07 583.708 430.933C586.27 427.795 587.531 424.658 587.531 421.47V327.419C587.531 324.228 586.257 321.071 583.708 317.947C581.146 314.829 579.875 312.501 579.875 310.952V310.183C579.875 307.765 581.406 306.556 584.469 306.556H626.024C629.087 306.556 630.628 307.765 630.628 310.183V310.952C630.628 312.481 629.217 314.809 626.414 317.947C623.612 321.084 622.201 324.231 622.201 327.419V421.48C622.201 424.671 623.605 427.825 626.414 430.942C629.217 434.07 630.628 436.398 630.628 437.937V438.696C630.628 441.124 629.087 442.333 626.024 442.333H584.469C581.406 442.326 579.875 441.111 579.875 438.686Z" fill="#016F45"/>
<path d="M773.68 442.323C770.617 442.323 769.086 441.111 769.086 438.686V437.927C769.086 436.395 770.36 434.063 772.909 430.932C775.291 428.27 776.65 424.849 776.742 421.281V327.609C776.649 324.037 775.29 320.614 772.909 317.947C770.36 314.829 769.086 312.498 769.086 310.952V310.183C769.086 307.765 770.547 306.556 773.49 306.556H861.204C862.817 306.42 864.422 306.899 865.697 307.895C866.835 309.173 867.537 310.779 867.699 312.481L872.303 336.571C872.448 337.27 872.433 337.992 872.26 338.683C872.086 339.375 871.759 340.019 871.302 340.568C870.816 341.089 870.22 341.497 869.557 341.761C868.895 342.025 868.181 342.14 867.469 342.097H866.518C864.086 342.097 861.634 340.917 859.142 338.559C856.697 336.257 854.512 333.694 852.626 330.916C850.647 328.036 848.26 325.458 845.54 323.262C843.086 321.065 839.928 319.812 836.633 319.725H819.839C814.087 319.725 811.212 322.849 811.212 329.097V366.566H831.328C833.6 366.577 835.791 365.723 837.454 364.178C839.132 362.716 840.495 360.928 841.457 358.922C842.314 357.062 843.371 355.3 844.61 353.667C845.831 352.068 847.012 351.279 848.163 351.279H849.694C852.246 351.279 853.517 352.738 853.517 355.675V390.087C853.517 393.024 852.246 394.483 849.694 394.483H848.163C847.012 394.483 845.831 393.713 844.61 392.185C843.387 390.634 842.33 388.96 841.457 387.189C840.471 385.273 839.11 383.574 837.454 382.193C835.764 380.704 833.583 379.889 831.328 379.905H811.212V415.176C811.113 418.649 812.047 422.073 813.894 425.017C815.682 427.755 818.618 429.124 822.701 429.124H842.818C844.413 429.092 845.987 428.746 847.448 428.107C848.91 427.467 850.231 426.547 851.335 425.397C853.87 423.026 856.033 420.288 857.751 417.274C859.414 414.332 861.431 411.605 863.756 409.151C866.118 406.659 868.577 405.417 871.132 405.424H872.854C873.51 405.404 874.159 405.563 874.732 405.883C875.305 406.204 875.78 406.673 876.106 407.242C876.863 408.398 877.139 409.803 876.877 411.159L872.663 436.208C872.486 437.933 871.788 439.564 870.662 440.884C869.701 441.843 868.136 442.323 865.968 442.323H773.68Z" fill="#016F45"/>
<path d="M943.552 445.95C926.818 445.95 912.963 442.383 901.987 435.249C891.011 428.115 885.523 420.085 885.523 411.159C885.523 402.107 890.117 397.58 899.305 397.58C902.917 397.542 906.408 398.874 909.073 401.307C911.944 403.868 914.342 406.912 916.159 410.3C918.081 413.803 920.126 417.307 922.294 420.811C924.572 424.427 927.655 427.47 931.302 429.704C935.392 432.192 940.115 433.452 944.904 433.331C950.515 433.331 954.952 431.928 958.215 429.124C961.478 426.32 963.102 422.433 963.089 417.464C963.236 412.937 961.779 408.504 958.975 404.944C956.114 401.477 952.429 398.781 948.256 397.101C943.485 395.123 938.59 393.455 933.604 392.105C928.266 390.639 922.902 388.918 917.51 386.939C912.369 385.073 907.454 382.637 902.858 379.675C898.226 376.546 894.496 372.261 892.039 367.246C889.237 361.83 887.832 355.362 887.825 347.842C887.825 335.605 892.549 325.664 901.997 318.017C911.445 310.37 924.023 306.546 939.729 306.546C955.176 306.546 968.23 310.02 978.892 316.967C989.555 323.915 994.819 331.872 994.686 340.838C994.686 345.174 993.441 348.584 990.952 351.069C988.464 353.554 984.857 354.796 980.133 354.796C976.229 354.883 972.428 353.544 969.444 351.029C966.524 348.575 964.14 345.548 962.438 342.136C960.704 338.699 958.979 335.226 957.264 331.715C955.573 328.246 953.157 325.18 950.178 322.723C947.075 320.202 943.167 318.879 939.169 318.996C933.424 318.996 929.017 320.554 925.948 323.672C924.399 325.287 923.192 327.197 922.399 329.288C921.607 331.379 921.244 333.608 921.334 335.842C921.161 340.775 922.59 345.633 925.407 349.69C928.175 353.461 931.87 356.455 936.136 358.383C940.893 360.553 945.804 362.37 950.829 363.818C956.166 365.41 961.504 367.162 966.842 369.074C971.926 370.888 976.803 373.232 981.394 376.068C985.934 378.969 989.625 383.015 992.093 387.798C994.849 392.908 996.223 399.089 996.217 406.343C996.217 418.453 991.143 428.078 980.994 435.219C970.845 442.36 958.365 445.937 943.552 445.95Z" fill="#016F45"/>
<path d="M758.556 342.606C758.055 343.105 757.453 343.493 756.79 343.742C756.128 343.992 755.42 344.099 754.713 344.055H751.47C749.559 344.055 747.627 342.836 745.715 340.408C743.767 337.954 742.089 335.298 740.711 332.485C739.241 329.54 737.297 326.857 734.956 324.541C733.936 323.427 732.701 322.531 731.325 321.906C729.949 321.281 728.461 320.94 726.95 320.904C725.308 320.899 723.69 321.293 722.236 322.053C721.358 322.516 720.557 323.113 719.864 323.822C718.007 325.68 716.958 328.192 716.941 330.816V421.45C716.941 424.618 718.322 427.785 721.065 430.912C723.807 434.04 725.178 436.358 725.178 437.907V438.656C725.178 441.074 723.667 442.293 720.584 442.293H678.649C675.706 442.293 674.255 441.074 674.255 438.656V437.907C674.255 436.368 675.606 434.05 678.369 430.912C680.464 428.701 681.857 425.92 682.372 422.919C682.44 422.446 682.473 421.968 682.472 421.49V331.146C682.862 329.25 683.806 327.511 685.184 326.15C686.643 324.837 688.195 323.632 689.828 322.543C689.926 322.505 690.012 322.443 690.078 322.363C690.161 322.29 690.226 322.201 690.271 322.101C690.316 322.001 690.339 321.893 690.339 321.783C690.341 321.673 690.322 321.563 690.281 321.46C690.241 321.357 690.18 321.263 690.103 321.184C690.025 321.105 689.933 321.042 689.831 320.999C689.728 320.956 689.619 320.934 689.508 320.934H672.363C670.861 320.96 669.38 321.297 668.014 321.923C666.648 322.549 665.426 323.45 664.427 324.571C662.137 326.887 660.255 329.572 658.862 332.515C657.547 335.336 655.908 337.995 653.978 340.438C652.076 342.869 650.161 344.085 648.233 344.085H644.99C641.397 344.085 639.816 342.226 640.206 338.529L642.779 320.934L644.02 312.531C644.41 308.584 646.572 306.606 650.535 306.606H748.978C752.801 306.606 754.983 308.604 755.494 312.531L759.497 338.739C759.653 339.412 759.65 340.113 759.486 340.784C759.323 341.456 759.004 342.08 758.556 342.606Z" fill="#016F45"/>
<path d="M262.498 194.572L229.412 63.8545L174.196 10.9956L138.811 48.8505L129.605 101.759L159.683 220.592" fill="#FF7733"/>
<path d="M238.537 181.897L295.373 0H317.553L292.204 89.5842L356.236 57.0272V74.4502L315.964 106.138L368.241 89.5842L374.898 109.306L290.615 147.321L293.783 196.431L238.537 181.897Z" fill="#016F45"/>
<path d="M150.876 210.696H85.8236L53.9173 190.694L45.6309 136.725L99.9075 105.758H114.821L100.327 72.6108L129.325 70.1218L129.745 103.688L191.478 125.23L210.53 162.935L186.09 202.709L150.876 210.696Z" fill="#016F45"/>
<path d="M71.0293 336.865H99.7369C91.7804 345.862 83.8205 354.858 75.8572 363.854C74.3079 355.158 72.7985 346.691 71.0293 336.865Z" fill="#BFD634"/>
<path d="M128.296 354.408C116.161 367.763 104.096 381.188 91.7815 394.392L91.7215 394.462C88.383 397.961 82.4255 396.411 80.7263 391.883C80.6163 391.593 80.5063 391.293 80.4064 391.004C79.7767 389.144 79.9566 387.005 79.6367 383.307C80.2964 382.107 81.246 379.308 83.0552 377.239C93.2708 365.654 103.516 354.128 114.092 342.853C117.011 339.754 119.909 335.096 125.817 338.625C134.853 344.022 135.403 346.581 128.296 354.408Z" fill="#BFD634"/>
<path d="M156.402 365.854C157.282 366.943 155.402 371.311 153.733 373.261C144.387 384.026 135.651 395.642 124.806 404.698C119.258 409.306 110.612 410.196 102.985 412.325C102.407 412.494 101.789 412.464 101.231 412.239C100.672 412.015 100.205 411.608 99.9062 411.086C99.6496 410.636 99.5291 410.122 99.5592 409.606C99.5894 409.089 99.769 408.593 100.076 408.177C101.293 406.408 102.605 404.706 104.004 403.079C115.749 390.154 127.454 377.199 139.399 364.484C141.398 362.335 144.927 359.776 147.346 360.136C150.634 360.616 154.203 363.195 156.402 365.854Z" fill="#BFD634"/>
<path d="M169.556 380.707C170.256 380.058 184.979 390.224 189.867 393.772C175.753 396.951 161.679 400.07 147.605 403.248C155.052 395.841 161.929 387.845 169.556 380.707Z" fill="#BFD634"/>
<path d="M126.417 439.604C118.72 441.157 111.017 442.676 103.307 444.162C100.041 444.791 96.7157 445.063 93.3908 444.972L15.8242 442.823C43.3524 437.825 72.9696 432.637 102.467 426.829C133.703 420.692 164.78 413.924 195.947 407.477C204.633 405.688 211.63 410.596 214.369 420.602C213.078 421.084 211.763 421.501 210.43 421.851C182.433 427.829 154.485 433.926 126.417 439.604Z" fill="#BFD634"/>
<path d="M238.767 439.474C240.956 444.702 237.068 448.731 231.41 450.15C227.722 451.08 224.054 452.149 220.315 452.889C191.618 458.417 162.93 463.815 134.172 469.342C124.756 471.182 115.35 473.081 105.884 475L101.656 458.077C132.936 451.739 164.206 445.425 195.466 439.134C206.311 436.955 217.127 434.336 228.082 433.287C231.57 432.977 237.448 436.346 238.767 439.474Z" fill="#BFD634"/>
<path d="M269.045 341.323C268.381 345.242 267.445 349.11 266.246 352.899C266.015 353.65 265.497 354.281 264.806 354.655C264.114 355.029 263.303 355.116 262.547 354.898C261.17 354.631 259.875 354.042 258.769 353.179C254.871 349.18 251.262 344.912 247.584 340.704C247.418 340.517 247.306 340.288 247.261 340.042C247.216 339.796 247.239 339.543 247.327 339.309C247.416 339.075 247.567 338.87 247.763 338.716C247.96 338.562 248.195 338.464 248.444 338.434C254.211 337.695 259.969 336.865 265.746 336.585C266.886 336.555 269.255 339.864 269.045 341.323Z" fill="#BFD634"/>
<path d="M363.844 339.134L357.936 365.184V365.254C352.689 378.429 346.351 391.074 337.725 402.599C335.857 404.86 333.855 407.007 331.728 409.026C331.098 408.707 330.438 408.397 329.789 408.077C329.789 405.968 329.269 403.709 329.878 401.809C336.186 381.817 342.873 362.015 349.02 342.003C351.469 334.066 357.397 335.236 362.285 336.915C363.072 337.425 363.631 338.22 363.844 339.134Z" fill="#BFD634"/>
<path d="M395 202.139L278.68 186.245L284.617 122.481C277.151 113.025 272.783 107.487 265.306 98.0008L127.945 78.1687C117.799 86.1655 112.352 90.3938 102.186 98.3306L94.5593 175.13H0L7.78665 337.125L19.8914 348.281L11.2052 356.277C11.8549 359.986 12.5346 363.724 13.2043 367.463C16.263 384.706 19.2717 401.949 22.0305 419.242C23.21 426.579 27.3982 426.919 33.4856 425.88C40.0927 424.77 40.4126 420.941 39.483 415.714C33.8854 384.726 28.4877 353.628 22.7502 322.621C21.9406 318.323 21.2808 315.084 26.8984 314.334C31.5364 313.724 35.2748 313.335 36.3544 319.882C41.3522 350.39 46.8398 380.858 51.9976 411.345C53.487 420.132 55.9959 421.781 64.4023 419.342C69.0403 418.023 70.1698 415.674 69.3302 410.986C65.8217 391.203 62.6131 371.331 59.3345 351.509C57.7152 341.763 55.9759 332.007 54.9763 322.141C54.7264 319.792 56.7656 316.143 58.8447 314.874C62.2432 312.875 65.9516 313.175 68.0107 318.093C68.5798 319.148 69.3845 320.057 70.3623 320.751C71.34 321.444 72.4645 321.903 73.6483 322.091C84.1238 322.361 94.6393 322.181 105.085 321.781C107.534 321.681 110.792 320.782 112.172 319.132C117.689 312.225 121.518 315.644 126.476 320.012C162.513 351.846 198.654 383.533 234.899 415.074C237.142 416.862 239.477 418.53 241.896 420.072C251.432 412.355 251.522 406.287 243.075 398.98C215.487 374.99 187.959 350.953 160.491 326.869C159.178 325.529 157.943 324.113 156.793 322.631L166.638 314.124C181.962 327.119 196.975 339.564 211.709 352.379C223.154 362.375 234.069 372.881 245.564 382.777C248.103 384.946 252.082 385.416 255.41 386.715C257.199 381.437 261.947 376.069 256.47 370.642C249.473 363.644 241.986 357.127 234.629 350.52C224.873 341.783 215.037 333.157 204.642 323.95C207.131 320.802 209.42 317.903 212.409 314.144C228.402 330.508 247.234 322.971 266.635 322.971C269.634 322.971 274.782 321.971 275.931 319.762C278.49 314.934 281.549 314.124 285.377 314.844C287.076 317.613 287.936 318.992 289.605 321.751C275.881 366.853 262.097 411.835 248.583 456.067L266.105 458.397C266.895 455.838 267.665 453.279 268.454 450.73C277.69 420.668 286.903 390.594 296.093 360.506C300.031 347.721 303.989 334.906 308.157 322.191C311.156 312.955 311.816 311.365 318.583 314.804L322.121 323.141C311.296 357.747 300.591 392.013 289.915 426.299C286.403 437.575 282.932 448.87 279.5 460.186L334.676 467.523L347.47 411.205C339.583 422.45 330.802 433.04 321.212 442.873C318.863 445.312 316.464 448.141 315.284 451.249C311.166 462.135 310.556 462.475 299.291 455.548C314.105 407.947 328.858 360.686 344.392 310.876C349.39 314.704 352.628 318.143 356.587 319.872C360.051 321.479 363.737 322.554 367.522 323.061L373.899 294.882L353.038 282.777L377.837 277.639L395 202.139ZM258.159 181.147L115.09 176.779V169.932L122.767 108.437L138.041 99.7001L254.44 113.535L263.157 126.609L258.159 181.147Z" fill="#BFD634"/>
</g>
<defs>
<clipPath id="clip0_116_44531">
<rect width="1000" height="475.19" fill="white"/>
</clipPath>
</defs>
</svg>
